<svg width="1304" height="324" viewBox="0 0 1304 324" fill="none" xmlns="http://www.w3.org/2000/svg">
<path opacity="0.417969" d="M21.5 31.5V353.197" stroke="#BDC7DE" stroke-linecap="square"/>
<path opacity="0.417969" d="M100.5 31.5V353.197" stroke="#BDC7DE" stroke-linecap="square"/>
<path opacity="0.417969" d="M179.5 31.5V353.197" stroke="#BDC7DE" stroke-linecap="square"/>
<path opacity="0.417969" d="M258.5 31.5V353.197" stroke="#BDC7DE" stroke-linecap="square"/>
<path opacity="0.417969" d="M337.5 31.5V353.197" stroke="#BDC7DE" stroke-linecap="square"/>
<path opacity="0.417969" d="M417.5 31.5V353.197" stroke="#BDC7DE" stroke-linecap="square"/>
<path opacity="0.417969" d="M496.5 31.5V353.197" stroke="#BDC7DE" stroke-linecap="square"/>
<path opacity="0.417969" d="M891.5 31.5V353.197" stroke="#BDC7DE" stroke-linecap="square"/>
<path opacity="0.417969" d="M575.5 31.5V353.197" stroke="#BDC7DE" stroke-linecap="square"/>
<path opacity="0.417969" d="M970.5 31.5V353.197" stroke="#BDC7DE" stroke-linecap="square"/>
<path opacity="0.417969" d="M654.5 31.5V353.197" stroke="#BDC7DE" stroke-linecap="square"/>
<path opacity="0.417969" d="M1050.5 31.5V353.197" stroke="#BDC7DE" stroke-linecap="square"/>
<path opacity="0.417969" d="M812.5 31.5V353.197" stroke="#BDC7DE" stroke-linecap="square"/>
<path opacity="0.417969" d="M1208.5 31.5V353.197" stroke="#BDC7DE" stroke-linecap="square"/>
<path opacity="0.417969" d="M1287.5 31.5V353.197" stroke="#BDC7DE" stroke-linecap="square"/>
<path opacity="0.417969" d="M733.5 31.5V353.197" stroke="#BDC7DE" stroke-linecap="square"/>
<path opacity="0.417969" d="M1129.5 31.5V353.197" stroke="#BDC7DE" stroke-linecap="square"/>
<path opacity="0.541667" fill-rule="evenodd" clip-rule="evenodd" d="M20 205C31.0457 205 40 196.046 40 185C40 173.954 31.0457 165 20 165C8.9543 165 0 173.954 0 185C0 196.046 8.9543 205 20 205Z" fill="#2F80ED"/>
<path opacity="0.57381" fill-rule="evenodd" clip-rule="evenodd" d="M266.5 165C279.479 165 290 154.479 290 141.5C290 128.521 279.479 118 266.5 118C253.521 118 243 128.521 243 141.5C243 154.479 253.521 165 266.5 165Z" fill="#2F80ED"/>
<path opacity="0.35813" fill-rule="evenodd" clip-rule="evenodd" d="M416 171C424.837 171 432 163.837 432 155C432 146.163 424.837 139 416 139C407.163 139 400 146.163 400 155C400 163.837 407.163 171 416 171Z" fill="#2F80ED"/>
<path opacity="0.35813" fill-rule="evenodd" clip-rule="evenodd" d="M573 116C579.075 116 584 111.075 584 105C584 98.9249 579.075 94 573 94C566.925 94 562 98.9249 562 105C562 111.075 566.925 116 573 116Z" fill="#2F80ED"/>
<path opacity="0.459748" fill-rule="evenodd" clip-rule="evenodd" d="M698 209C711.255 209 722 198.255 722 185C722 171.745 711.255 161 698 161C684.745 161 674 171.745 674 185C674 198.255 684.745 209 698 209Z" fill="#2F80ED"/>
<path opacity="0.459748" fill-rule="evenodd" clip-rule="evenodd" d="M885.5 98C894.06 98 901 91.0604 901 82.5C901 73.9396 894.06 67 885.5 67C876.94 67 870 73.9396 870 82.5C870 91.0604 876.94 98 885.5 98Z" fill="#2F80ED"/>
<path opacity="0.408855" fill-rule="evenodd" clip-rule="evenodd" d="M1006 40C1017.05 40 1026 31.0457 1026 20C1026 8.9543 1017.05 0 1006 0C994.954 0 986 8.9543 986 20C986 31.0457 994.954 40 1006 40Z" fill="#2F80ED"/>
<path opacity="0.35813" fill-rule="evenodd" clip-rule="evenodd" d="M1123 120C1131.28 120 1138 113.284 1138 105C1138 96.7157 1131.28 90 1123 90C1114.72 90 1108 96.7157 1108 105C1108 113.284 1114.72 120 1123 120Z" fill="#2F80ED"/>
<path opacity="0.35813" fill-rule="evenodd" clip-rule="evenodd" d="M1289 113C1297.28 113 1304 106.284 1304 98C1304 89.7157 1297.28 83 1289 83C1280.72 83 1274 89.7157 1274 98C1274 106.284 1280.72 113 1289 113Z" fill="#2F80ED"/>
<path fill-rule="evenodd" clip-rule="evenodd" d="M179 94C185.075 94 190 89.0751 190 83C190 76.9249 185.075 72 179 72C172.925 72 168 76.9249 168 83C168 89.0751 172.925 94 179 94Z" fill="#2F80ED"/>
<g style="mix-blend-mode:darken" opacity="0.578656">
<path fill-rule="evenodd" clip-rule="evenodd" d="M643 139C649.627 139 655 133.627 655 127C655 120.373 649.627 115 643 115C636.373 115 631 120.373 631 127C631 133.627 636.373 139 643 139Z" fill="#2F80ED"/>
</g>
<g style="mix-blend-mode:darken" opacity="0.191746">
<path fill-rule="evenodd" clip-rule="evenodd" d="M799.5 180C803.642 180 807 176.642 807 172.5C807 168.358 803.642 165 799.5 165C795.358 165 792 168.358 792 172.5C792 176.642 795.358 180 799.5 180Z" fill="#2F80ED"/>
</g>
<g style="mix-blend-mode:darken" opacity="0.691758">
<path fill-rule="evenodd" clip-rule="evenodd" d="M526.5 218C538.926 218 549 207.926 549 195.5C549 183.074 538.926 173 526.5 173C514.074 173 504 183.074 504 195.5C504 207.926 514.074 218 526.5 218Z" fill="#2F80ED"/>
</g>
<path opacity="0.35813" fill-rule="evenodd" clip-rule="evenodd" d="M842 107C848.627 107 854 101.627 854 95C854 88.3726 848.627 83 842 83C835.373 83 830 88.3726 830 95C830 101.627 835.373 107 842 107Z" fill="#2F80ED"/>
<path opacity="0.628855" fill-rule="evenodd" clip-rule="evenodd" d="M932 158C938.627 158 944 152.627 944 146C944 139.373 938.627 134 932 134C925.373 134 920 139.373 920 146C920 152.627 925.373 158 932 158Z" fill="#2F80ED"/>
<path opacity="0.35813" fill-rule="evenodd" clip-rule="evenodd" d="M1050 155C1056.63 155 1062 149.627 1062 143C1062 136.373 1056.63 131 1050 131C1043.37 131 1038 136.373 1038 143C1038 149.627 1043.37 155 1050 155Z" fill="#2F80ED"/>
<path opacity="0.660272" fill-rule="evenodd" clip-rule="evenodd" d="M1247 153C1253.63 153 1259 147.627 1259 141C1259 134.373 1253.63 129 1247 129C1240.37 129 1235 134.373 1235 141C1235 147.627 1240.37 153 1247 153Z" fill="#2F80ED"/>
<path opacity="0.215127" fill-rule="evenodd" clip-rule="evenodd" d="M103 155C109.627 155 115 149.627 115 143C115 136.373 109.627 131 103 131C96.3726 131 91 136.373 91 143C91 149.627 96.3726 155 103 155Z" fill="#2F80ED"/>
</svg>
